<svg width="128" height="128" viewBox="0 0 128 128" fill="none" xmlns="http://www.w3.org/2000/svg">
<g clip-path="url(#clip0_413_2)">
<rect width="128" height="128" rx="25" fill="url(#paint0_linear_413_2)"/>
<path d="M114 76.0833L113.979 75.4375L113.937 74.7917L113.875 74.1458L113.812 73.5208L113.729 72.8958L113.625 72.2708L113.521 71.6458L113.396 71.0417L113.25 70.4375L113.083 69.8333L112.916 69.2292L112.729 68.6458L112.541 68.0625L112.333 67.4792L112.104 66.9167L111.874 66.3542L111.624 65.7917L111.354 65.25L111.083 64.7083L110.791 64.1667L110.499 63.6458L110.187 63.125L109.874 62.625L109.541 62.125L109.186 61.625L108.832 61.1458L108.457 60.6667L108.082 60.2083L107.686 59.75L107.29 59.3125L106.873 58.875L106.456 58.4583L106.019 58.0417L105.581 57.6458L105.144 57.25L104.685 56.875L104.227 56.5L103.747 56.1458L103.268 55.7917L102.789 55.4583L102.289 55.1458L101.789 54.8333L101.268 54.5417L100.747 54.25L100.226 53.9792L99.684 53.7292L99.1422 53.4792L98.6004 53.25L98.0377 53.0208L97.4751 52.8125L96.9124 52.625L96.329 52.4375L95.7455 52.2708L95.162 52.125L94.5785 52L93.9742 51.875L93.3699 51.7708L92.7656 51.6875L92.1613 51.625L91.5361 51.5625L90.911 51.5208L90.2858 51.5H89.6607H89.0147L88.3687 51.5208L87.7227 51.5625L87.0767 51.625L86.4515 51.7083L85.8264 51.7917L85.2012 51.8958L84.5969 52.0208L83.9926 52.1458L83.3883 52.2917L82.8048 52.4583L82.2213 52.625L81.6378 52.8125L81.0752 53L80.5126 53.2083L79.9708 53.4375L79.429 53.6667L78.8872 53.9167L78.3662 54.1667L77.8452 54.4375L77.3243 54.7083L76.8242 55L76.324 55.2917L75.8447 55.6042L75.3655 55.9167L74.907 56.2292L74.4486 56.5625L73.9901 56.8958L73.5525 57.2292L73.1149 57.5833L72.6981 57.9375L72.323 58.2708L72.1355 58.4375L71.9271 58.625L71.7187 58.8333L71.4895 59.0417L71.2603 59.2708L71.0102 59.5208L70.7602 59.7708L70.4893 60.0417L70.1975 60.3333L69.9058 60.625L69.5932 60.9375L69.2806 61.2708L68.9472 61.625L68.6138 61.9792L68.2595 62.3542L67.9053 62.75L67.5302 63.1667L67.3426 63.375L67.1551 63.5833L66.9676 63.8125L66.78 64.0417L66.5925 64.2708L66.3841 64.5L66.1757 64.7292L65.9673 64.9792L65.7589 65.2292L65.5505 65.4792L65.3422 65.7292L65.1338 66L64.9254 66.2708L64.6962 66.5417L64.4669 66.8125L64.2377 67.1042L64.0085 67.3958L63.7793 67.6875L63.55 67.9792L63.3208 68.2708L63.0916 68.5833L62.8415 68.8958L62.5915 69.2083L62.3414 69.5208L62.0914 69.8542L61.8413 70.1875L61.5912 70.5208L61.3412 70.8542L61.0911 71.1875L60.841 71.5417L60.3826 72.1667L59.9241 72.7708L59.424 73.3542L58.9656 73.9375L58.528 74.5L58.0904 75.0417L57.6528 75.5833L57.236 76.1042L56.8192 76.6042L56.4025 77.1042L56.0065 77.5833L55.6106 78.0417L55.2147 78.5L54.8396 78.9375L54.4645 79.3542L54.1102 79.7708L53.756 80.1667L53.4017 80.5417L53.0683 80.9167L52.7349 81.2708L52.4223 81.6042L52.1097 81.9375L51.7971 82.25L51.5054 82.5417L51.2137 82.8333L50.9428 83.1042L50.6719 83.375L50.4218 83.625L50.1717 83.8542L49.9425 84.0833L49.7133 84.2917L49.5049 84.5L49.2965 84.6875L49.0673 84.875L48.8172 85.0625L48.5672 85.25L48.2963 85.4375L48.0254 85.625L47.7336 85.8542L47.4419 86.0417L47.1293 86.2292L46.8168 86.4167L46.5042 86.6042L46.1708 86.7708L45.8373 86.9375L45.5039 87.1042L45.1705 87.25L44.8371 87.3958L44.462 87.5417L44.0869 87.6875L43.7118 87.8125L43.295 87.9375L42.8991 88.0417L42.524 88.1458L42.1281 88.2292L41.7322 88.3125L41.3362 88.3958L40.9611 88.4583L40.586 88.5208L40.211 88.5625L39.8567 88.6042L39.5024 88.625L39.1482 88.6458H38.8148H38.4397L38.0854 88.625L37.7312 88.6042L37.3769 88.5625L37.0435 88.5208L36.7101 88.4792L36.3767 88.4167L36.0641 88.3542L35.7515 88.2917L35.4389 88.2083L35.1264 88.125L34.8346 88.0417L34.5429 87.9375L34.2511 87.8333L33.9803 87.7292L33.7093 87.6042L33.4384 87.4792L33.1675 87.3542L32.9175 87.2083L32.6674 87.0625L32.4174 86.9167L32.1673 86.7708L31.9381 86.6042L31.7089 86.4375L31.4796 86.2708L31.2712 86.0625L31.0629 85.875L30.8545 85.6875L30.6461 85.5L30.4377 85.3125L30.2293 85.1042L30.0418 84.8958L29.8542 84.6875L29.6667 84.4792L29.4791 84.25L29.3124 84.0208L29.1457 83.7917L28.979 83.5625L28.8331 83.3333L28.6873 83.0833L28.5414 82.8333L28.3955 82.5833L28.2705 82.3333L28.1455 82.1042L28.0204 81.8542L27.8954 81.6042L27.7912 81.3333L27.687 81.0625L27.5828 80.7917L27.4995 80.5208L27.4161 80.25L27.3328 79.9792L27.2494 79.7083L27.1869 79.4375L27.1244 79.1667L27.0619 78.8958L27.0202 78.625L26.9785 78.3542L26.9368 78.0833L26.916 77.8125L26.8952 77.5417L26.8743 77.2708V77V76.7292V76.4167L26.8952 76.125L26.916 75.8333L26.9368 75.5417L26.9577 75.25L26.9994 74.9583L27.041 74.6667L27.0827 74.3958L27.1452 74.125L27.2077 73.8542L27.2703 73.5833L27.3536 73.3125L27.437 73.0417L27.5203 72.7708L27.6037 72.5208L27.7079 72.2708L27.8121 72.0208L27.9163 71.7708L28.0204 71.5208L28.1455 71.2708L28.2705 71.0417L28.3955 70.8125L28.5206 70.5833L28.6664 70.3542L28.8123 70.125L28.9582 69.8958L29.104 69.6875L29.2708 69.4792L29.4375 69.2708L29.6042 69.0625L29.7709 68.8542L29.9376 68.6458L30.1251 68.4583L30.3127 68.2708L30.5002 68.0833L30.6878 67.8958L30.8753 67.7292L31.0629 67.5625L31.2712 67.3958L31.4796 67.2292L31.688 67.0625L31.8964 66.9167L32.1048 66.7708L32.3132 66.625L32.5216 66.4792L32.7299 66.3542L32.9383 66.2292L33.1675 66.1042L33.3968 66L33.626 65.8958L33.8552 65.7917L34.0844 65.6875L34.3137 65.6042L34.5429 65.5208L34.7721 65.4375L35.0013 65.3542L35.2306 65.2917L35.4598 65.2292L35.689 65.1667L35.9182 65.125L36.1474 65.0833L36.3767 65.0417L36.5851 65L36.7934 64.9792L37.1685 64.9375L37.5228 64.8958L37.877 64.875L38.2105 64.8542L38.5439 64.8333L38.8565 64.8125H39.169H39.4608H39.7108H39.9401H40.1693H40.3985L40.8361 64.8333L41.2529 64.875L41.6696 64.9167L42.0656 64.9792L42.4615 65.0417L42.8366 65.125L43.2117 65.2083L43.5868 65.3125L43.9619 65.4167L44.3578 65.5417L44.7537 65.6667L45.1705 65.8125L45.5873 65.9583L45.7957 66.0417L46.0249 66.125L46.275 66.2083L46.525 66.2917L46.7751 66.3542L47.0251 66.4167L47.2752 66.4583L47.5253 66.5L47.7753 66.5208L48.0254 66.5417H48.2754H48.5255L48.7756 66.5208L49.0256 66.5L49.2757 66.4583L49.5258 66.4167L49.7758 66.3542L50.0259 66.2917L50.2759 66.2083L50.526 66.125L50.7552 66.0208L50.9844 65.9167L51.2137 65.7917L51.4429 65.6667L51.6721 65.5208L51.8805 65.375L52.0889 65.2083L52.2973 65.0417L52.4848 64.8542L52.6724 64.6667L52.8599 64.4792L53.0475 64.2708L53.2142 64.0625L53.3809 63.8333L53.5267 63.6042L53.6726 63.375L53.7976 63.1458L54.0477 62.9375L54.1519 62.6875L54.2561 62.4375L54.3394 62.1875L54.4228 61.9375L54.4853 61.6875L54.5478 61.4375L54.6103 61.1667L54.652 60.8958L54.6937 60.625L54.7145 60.3542L54.7354 60.0833V59.8125V59.5417L54.7145 59.2708L54.6937 59L54.6312 58.7708L54.5895 58.5L54.527 58.25L54.4645 58L54.3811 57.75L54.2978 57.5L54.1936 57.25L54.0894 57L53.9643 56.75L53.8393 56.5208L53.6934 56.2917L53.5476 56.0625L53.3809 55.8333L53.36 55.8125L53.3392 55.7917L53.2975 55.7292L53.235 55.6458L53.1725 55.5417L53.11 55.4167L53.0266 55.2917L52.9433 55.1458L52.8599 54.9792L52.7557 54.8125L52.6515 54.6042L52.5473 54.4167L52.4431 54.2083L52.3389 54L52.2348 53.7708L52.1306 53.5417L52.0264 53.2917L51.9222 53.0417L51.818 52.7917L51.7138 52.5208L51.6304 52.25L51.5471 51.9792L51.4846 51.6875L51.4012 51.4167L51.3387 51.1458L51.2762 50.8542L51.2137 50.5625L51.172 50.2708L51.1303 49.9792L51.1095 49.7083L51.0886 49.4375L51.0678 49.1667V48.8958V48.8333V48.7917V48.75V48.7083V48.6875V48.4375L51.0886 48.1875L51.1095 47.9375L51.1303 47.6875L51.1512 47.4375L51.1928 47.1875L51.2345 46.9583L51.2762 46.7292L51.3179 46.5L51.3804 46.2708L51.4429 46.0417L51.5054 45.8125L51.5679 45.6042L51.6513 45.3958L51.7346 45.1875L51.818 44.9792L51.9013 44.7708L51.9847 44.5625L52.0889 44.3542L52.1931 44.1667L52.2973 43.9792L52.4015 43.7917L52.5057 43.6042L52.6307 43.4167L52.7557 43.2292L52.8807 43.0625L53.0058 42.8958L53.1308 42.7292L53.2558 42.5625L53.4017 42.3958L53.5476 42.2292L53.6934 42.1042L54.006 41.8125L54.1727 41.6667L54.3394 41.5208L54.5061 41.375L54.6729 41.25L54.8604 41.125L55.0479 41L55.2355 40.875L55.423 40.75L55.6106 40.625L55.819 40.5208L56.0274 40.4167L56.2357 40.3125L56.4441 40.2083L56.6733 40.1042L56.9026 40.0208L57.1318 39.9375L57.3819 39.8542L57.6319 39.7708L57.882 39.7083L58.132 39.6458L58.4029 39.5833L58.6738 39.5208L58.9447 39.4792L59.2365 39.4375L59.5282 39.3958L59.82 39.375L60.1325 39.3542L60.4451 39.3333L60.7577 39.3125H61.0911H61.4454L61.8205 39.3333L62.2164 39.3542L62.6123 39.3958L62.9874 39.4375L63.3625 39.5L63.7376 39.5625L64.0918 39.625L64.4461 39.7083L64.8004 39.7917L65.1338 39.8958L65.4672 40L65.8006 40.125L66.1132 40.25L66.4258 40.375L66.7383 40.5208L67.0509 40.6667L67.3426 40.8333L67.6344 41L67.9261 41.1667L68.1553 41.3542L68.4471 41.5417L68.718 41.75L68.9889 41.9583L69.2598 42.1875L69.5307 42.4167L69.8016 42.6667L70.0725 42.9167L70.3226 43.1875L70.5726 43.4583L70.8227 43.75L71.0727 44.0625L71.3228 44.375L71.5729 44.7083L71.7812 44.9792L71.9896 45.2292L72.2189 45.4792L72.4481 45.7083L72.6981 45.9167L72.9482 46.125L73.1983 46.3125L73.4692 46.4792L73.7401 46.625L74.011 46.7708L74.3027 46.8958L74.5944 47L74.8862 47.1042L75.1779 47.1875L75.4697 47.25L75.7822 47.3125L76.0948 47.3542L76.4074 47.375H76.72H77.0325L77.3451 47.3542L77.6577 47.3125L77.9703 47.25L78.2828 47.1875L78.5954 47.1042L78.8872 47L79.1789 46.875L79.4706 46.75L79.7624 46.6042L80.0541 46.4375L80.325 46.25L80.5959 46.0417L80.846 45.8333L81.096 45.6042L81.3253 45.375L81.5545 45.125L81.7629 44.875L81.9504 44.6042L82.138 44.3333L82.3047 44.0625L82.4505 43.7708L82.5964 43.4792L82.7215 43.1875L82.8256 42.8958L82.9298 42.5833L83.0132 42.2708L83.0757 41.9583L83.1174 41.6458L83.1591 41.3333L83.1799 41.0208V40.7083V40.3958L83.1591 40.0833L83.1174 39.7708L83.0549 39.4583L82.9923 39.1458L82.909 38.8333L82.8048 38.5208L82.7006 38.2083L82.5756 37.8958L82.4297 37.6042L82.263 37.3125L82.0963 37.0208L81.9087 36.75L81.6795 36.4375L81.4503 36.1458L81.2211 35.8542L80.9919 35.5625L80.7626 35.2708L80.5334 34.9792L80.2833 34.7083L80.0333 34.4375L79.7832 34.1667L79.5332 33.8958L79.2831 33.625L79.033 33.3542L78.783 33.1042L78.5121 32.8542L78.2412 32.6042L77.9703 32.3542L77.6994 32.1042L77.4285 31.875L77.1576 31.6458L76.8867 31.4167L76.5949 31.1875L76.3032 30.9792L76.0115 30.7708L75.7197 30.5625L75.428 30.3542L75.1362 30.1458L74.8445 29.9583L74.5528 29.7708L74.2402 29.5833L73.9276 29.3958L73.615 29.2083L73.3025 29.0417L72.9899 28.875L72.6773 28.7083L72.3647 28.5417L72.0521 28.3958L71.7396 28.25L71.4062 28.1042L71.0727 27.9583L70.7393 27.8333L70.4059 27.7083L70.0725 27.5833L69.7391 27.4583L69.4057 27.3333L69.0722 27.2292L68.7388 27.125L68.4054 27.0208L68.072 26.9167L67.3843 26.75L66.6967 26.5833L66.009 26.4375L65.3005 26.3125L64.592 26.2083L63.8835 26.125L63.175 26.0625L62.4664 26.0208L61.7996 26H61.1328H60.5285L59.9241 26.0208L59.3198 26.0625L58.7364 26.1042L58.1529 26.1667L57.5694 26.25L56.9859 26.3333L56.4233 26.4375L55.8606 26.5625L55.298 26.6875L54.7354 26.8333L54.1936 26.9792L53.5684 27.125L53.0266 27.3125L52.5057 27.5L51.9847 27.7083L51.4637 27.9167L50.9636 28.1458L50.4635 28.3958L49.9634 28.6458L49.4841 28.9167L48.984 29.1875L48.5047 29.4792L48.0462 29.7708L47.5878 30.0833L47.1502 30.3958L46.7126 30.7292L46.2958 31.0625L45.879 31.4167L45.4831 31.7708L45.0872 32.1458L44.6912 32.5208L44.3161 32.9167L43.941 33.3125L43.5868 33.7292L43.2325 34.1458L42.8991 34.5625L42.5657 35L42.2531 35.4375L41.9614 35.8958L41.6696 36.3542L41.3987 36.8125L41.1278 37.2917L40.8778 37.7708L40.6277 38.25L40.3985 38.75L40.1693 39.25L39.9609 39.75L39.7525 40.25L39.565 40.7708L39.3983 41.2917L39.2315 41.8125L39.0857 42.3333L38.9398 42.8542L38.8148 43.3958L38.6897 43.9375L38.5856 44.4792L38.5022 45.0208L38.4188 45.5625L38.3563 46.1042L38.2938 46.6458L38.2521 47.2083L38.2105 47.7708V48.3542V48.3333V48.4792V48.625V48.7708V48.8958V49.2292V49.5625L38.2313 49.8958L38.2521 50.2292L38.273 50.5625L38.2938 50.875L38.3147 51.1875L38.3563 51.5L37.6478 51.5208L36.9393 51.5625L36.21 51.625L35.4598 51.7083L34.8971 51.7708L34.3345 51.8542L33.7719 51.9583L33.2092 52.0833L32.6466 52.2083L32.0839 52.3542L31.5421 52.5208L31.0003 52.6875L30.4585 52.875L29.9167 53.0833L29.3958 53.2917L28.8748 53.5208L28.3539 53.7708L27.8329 54.0208L27.3328 54.2917C18.8724 58.875 13.6627 68.0208 14.017 77.6667C14.4129 87.9583 21.0187 95.6458 26.8118 98.875C26.9368 98.9583 27.0619 99.0208 27.1452 99.0625L27.4786 99.2292L27.8121 99.3958L28.1455 99.5625L28.4789 99.7292L28.8123 99.875L29.1666 100.021L29.5208 100.167L29.8751 100.312L30.2293 100.437L30.5836 100.562L30.9378 100.687L31.2921 100.812L31.6672 100.917L32.0423 101.021L32.4174 101.125L32.7925 101.229L33.1675 101.312L33.5426 101.396L33.9177 101.479L34.3137 101.562L34.7096 101.625L35.1055 101.687L35.5015 101.75L35.8974 101.792L36.2933 101.833L36.6893 101.875L37.0852 101.896L37.4811 101.917L37.8979 101.937H38.3147H38.7314H38.8356L39.5024 101.917L40.1693 101.896L40.8361 101.854L41.5029 101.792L42.1698 101.708L42.8366 101.604L43.5034 101.5L44.1703 101.375L44.8371 101.229L45.5039 101.062L46.1708 100.896L46.8376 100.708L47.5044 100.5L48.1713 100.271L48.8381 100.021L49.5049 99.7708L50.1092 99.5208L50.7135 99.25L51.297 98.9792L51.8805 98.6875L52.4431 98.3958L53.0058 98.0833L53.5684 97.7917L54.1102 97.4583L54.6312 97.125L55.1521 96.7708L55.6523 96.4167L56.1524 96.0417L56.6317 95.6667L57.111 95.2917L57.5694 94.8958L58.0278 94.5L58.2988 94.25L58.5905 93.9792L58.8822 93.7083L59.1948 93.4167L59.5074 93.1042L59.82 92.7917L60.1534 92.4583L60.4868 92.1042L60.841 91.75L61.1953 91.375L61.5704 91L61.9455 90.6042L62.3206 90.1875L62.7165 89.7708L63.1124 89.3333L63.5292 88.875L63.946 88.4167L64.3627 87.9375L64.8004 87.4375L65.238 86.9375L65.6756 86.4167L66.134 85.875L66.5925 85.3125L67.0509 84.75L67.5302 84.1667L68.0095 83.5625L68.4888 82.9583L68.9889 82.3333L69.489 81.6875L69.9891 81.0208L70.4893 80.3542L71.0102 79.6667L71.2394 79.3542L71.4687 79.0417L71.6979 78.7292L71.9271 78.4167L72.1563 78.125L72.3856 77.8333L72.6148 77.5417L72.844 77.25L73.0524 76.9792L73.2608 76.7083L73.4692 76.4375L73.6775 76.1667L73.8859 75.9167L74.0943 75.6667L74.3027 75.4167L74.5111 75.1667L74.6986 74.9167L74.8862 74.6875L75.0737 74.4583L75.2613 74.2292L75.4488 74L75.6364 73.7917L75.8239 73.5833L76.0115 73.375L76.1782 73.1667L76.3449 72.9583L76.5116 72.7708L76.6783 72.5833L76.845 72.3958L77.0117 72.2083L77.1784 72.0208L77.3243 71.8542L77.4702 71.6875L77.616 71.5208L77.7619 71.3542L77.9078 71.1875L78.0536 71.0417L78.1995 70.8958L78.3245 70.75L78.4496 70.6042L78.6996 70.3333L78.9497 70.0833L79.1789 69.8542L79.4081 69.625L79.6165 69.4167L79.8041 69.2292L79.9916 69.0417L80.1583 68.875L80.325 68.7292L80.4709 68.5833L80.5959 68.4583L80.721 68.3542L80.9293 68.1667L81.1586 67.9792L81.3878 67.7917L81.617 67.6042L81.8462 67.4375L82.0963 67.2708L82.3672 67.1042L82.6173 66.9375L82.8673 66.7708L83.1174 66.625L83.3883 66.4792L83.6592 66.3333L83.9301 66.1875L84.201 66.0625L84.4719 65.9375L84.7636 65.8125L85.0554 65.6875L85.3471 65.5833L85.6388 65.4792L85.9306 65.375L86.2223 65.2917L86.5141 65.2083L86.8266 65.125L87.1392 65.0625L87.4518 65.0208L87.7644 64.9583L88.0769 64.9167L88.3895 64.875L88.7021 64.8542L89.0147 64.8333L89.3481 64.8125H89.6815H89.9732L90.265 64.8333L90.5567 64.8542L90.8485 64.875L91.1402 64.9167L91.4319 64.9583L91.7028 65.0208L91.9737 65.0833L92.2446 65.1458L92.5155 65.2083L92.7864 65.2917L93.0573 65.375L93.3282 65.4583L93.5991 65.5625L93.87 65.6667L94.1201 65.7708L94.3702 65.8958L94.6202 66.0208L94.8703 66.1458L95.1203 66.2708L95.3704 66.4167L95.5996 66.5625L95.8288 66.7083L96.0581 66.875L96.2873 67.0417L96.5165 67.2083L96.7249 67.375L96.9333 67.5625L97.1417 67.75L97.3501 67.9375L97.5584 68.125L97.7668 68.3333L97.9544 68.5417L98.1419 68.75L98.3295 68.9583L98.517 69.1875L98.6837 69.4167L98.8504 69.6458L99.0171 69.875L99.1838 70.1042L99.3297 70.3333L99.4756 70.5833L99.6214 70.8333L99.7465 71.0833L99.8715 71.3333L99.9965 71.5833L100.122 71.8542L100.226 72.125L100.33 72.3958L100.434 72.6667L100.518 72.9375L100.601 73.2083L100.684 73.4792L100.768 73.7708L100.83 74.0625L100.893 74.3542L100.955 74.6458L100.997 74.9375L101.038 75.2292L101.08 75.5208L101.101 75.8125L101.122 76.125L101.143 76.4375V76.75V77.0625L101.122 77.375L101.101 77.6875L101.08 77.9792L101.038 78.2708L100.997 78.5625L100.955 78.8542L100.893 79.1458L100.83 79.4375L100.768 79.7292L100.684 80.0208L100.601 80.2917L100.518 80.5625L100.434 80.8333L100.33 81.1042L100.226 81.375L100.122 81.6458L99.9965 81.9167L99.8715 82.1667L99.7465 82.4167L99.6214 82.6667L99.4756 82.9167L99.3297 83.1667L99.1838 83.3958L99.0171 83.625L98.8504 83.8542L98.6837 84.0833L98.517 84.3125L98.3295 84.5208L98.1419 84.7292L97.9544 84.9375L97.7668 85.1458L97.5584 85.3542L97.3501 85.5417L97.1417 85.7292L96.9333 85.9167L96.7249 86.1042L96.5165 86.2708L96.2873 86.4375L96.0581 86.6042L95.8288 86.7708L95.5996 86.9167L95.3704 87.0625L95.1203 87.2083L94.8703 87.3333L94.6202 87.4583L94.3702 87.5833L94.1201 87.7083L93.87 87.8125L93.5991 87.9167L93.3282 88.0208L93.0573 88.1042L92.7864 88.1875L92.5155 88.2708L92.2446 88.3333L91.9737 88.3958L91.7028 88.4583L91.4111 88.5L91.1194 88.5417L90.8276 88.5833L90.5359 88.6042L90.2441 88.625L89.9524 88.6458H89.6607H76.074H75.7406L75.4071 88.6667L75.0946 88.7083L74.782 88.7708L74.4694 88.8542L74.1568 88.9375L73.8651 89.0417L73.5733 89.1667L73.2816 89.2917L73.0107 89.4375L72.7398 89.6042L72.4689 89.7708L72.2189 89.9583L71.9688 90.1667L71.7396 90.375L71.5103 90.6042L71.302 90.8333L71.0936 91.0833L70.906 91.3333L70.7185 91.6042L70.5518 91.875L70.4059 92.1458L70.26 92.4375L70.135 92.7292L70.01 93.0417L69.9058 93.3542L69.8224 93.6667L69.7599 94L69.6974 94.3333L69.6557 94.6667L69.6349 95V95.3333V95.6667L69.6557 96L69.6974 96.3333L69.7599 96.6667L69.8224 96.9792L69.9058 97.2917L70.01 97.6042L70.135 97.9167L70.26 98.2083L70.4059 98.5L70.5518 98.7708L70.7185 99.0417L70.906 99.3125L71.0936 99.5625L71.302 99.8125L71.5103 100.042L71.7396 100.271L71.9688 100.479L72.2189 100.687L72.4689 100.875L72.7398 101.042L73.0107 101.208L73.2816 101.354L73.5733 101.479L73.8651 101.604L74.1568 101.708L74.4694 101.792L74.782 101.875L75.0946 101.937L75.4071 101.979L75.7406 102H76.074H89.6815H90.3067L90.9318 101.979L91.557 101.937L92.1821 101.875L92.7864 101.812L93.3907 101.729L93.9951 101.625L94.5994 101.5L95.1829 101.375L95.7663 101.229L96.3498 101.062L96.9333 100.875L97.4959 100.687L98.0586 100.479L98.6212 100.25L99.163 100.021L99.7048 99.7708L100.247 99.5208L100.768 99.25L101.289 98.9583L101.809 98.6667L102.31 98.3542L102.81 98.0417L103.289 97.7083L103.768 97.3542L104.248 97L104.706 96.625L105.164 96.25L105.602 95.8542L106.04 95.4583L106.477 95.0417L106.894 94.625L107.311 94.1875L107.707 93.75L108.103 93.2917L108.478 92.8333L108.853 92.3542L109.207 91.875L109.561 91.375L109.895 90.875L110.207 90.375L110.52 89.8542L110.812 89.3333L111.103 88.7917L111.374 88.25L111.645 87.7083L111.895 87.1458L112.125 86.5833L112.354 86.0208L112.562 85.4375L112.75 84.8542L112.937 84.2708L113.104 83.6667L113.271 83.0625L113.417 82.4583L113.542 81.8542L113.646 81.2292L113.75 80.6042L113.833 79.9792L113.896 79.3542L113.958 78.7083L114 78.0625V77.375V76.7292V76.0833Z" fill="white"/>
</g>
<defs>
<linearGradient id="paint0_linear_413_2" x1="7.5" y1="8" x2="121.5" y2="120" gradientUnits="userSpaceOnUse">
<stop offset="0.296566" stop-color="#2273B9"/>
<stop offset="1" stop-color="#003D71"/>
</linearGradient>
<clipPath id="clip0_413_2">
<rect width="128" height="128" fill="white"/>
</clipPath>
</defs>
</svg>
